:SAMPLES-PER-SECOND 24
:FULLY-SPECIFIED
:DEGREES
168
root  10.1927 38.5268 11.5623 10.2473 -58.7574 -6.65741
RightUpLeg  -7.73269 9.23674 -1.50286
RightLeg  28.9149 -6.05478 -3.85579
RightFoot  -19.4953 0.351994 6.81064
RightToes  -2.08645e-008 3.77894e-005 6.81332e-007
Spine  -3.06997 0.195706 0.800892
Spine1  7.34471 -0.53453 3.60117
HEad  -32.0545 34.2061 -15.9442
LeftShoulder1  7.85223 -13.5077 -39.9584
LeftArm  -7.37353 24.8606 -32.1162
LeftForeArm  159.432 -72.9964 -146.926
LeftHand  -0.569749 -1.68211 9.5309
RightShoulder  4.11361 6.75826 34.1954
RightArm  7.4269 -21.0189 33.0684
RightForeArm  101.263 80.4298 89.7528
RightHand  -0.752623 7.04153 -7.36166
LeftUpLeg  -16.8665 -5.64633 19.3292
LeftLeg  30.1782 6.18905 4.21817
LeftFoot  -4.20496 1.24284 -19.6583
LeftToes  1.24767e-006 1.47042e-008 1.32732e-009
169
root  10.1856 39.8091 12.1888 9.49023 -59.0689 -4.97552
RightUpLeg  -6.98026 6.93552 -4.17754
RightLeg  24.7666 -2.54983 -1.52941
RightFoot  -11.3339 -0.0874964 9.13955
RightToes  -2.08645e-008 3.77894e-005 6.81332e-007
Spine  -3.68586 0.377107 1.20833
Spine1  6.40939 -0.131742 2.73964
HEad  -29.9908 34.5948 -15.7517
LeftShoulder1  7.6102 -13.2913 -39.1532
LeftArm  -6.15908 30.2862 -34.6153
LeftForeArm  159.974 -71.1935 -150.238
LeftHand  -0.525375 -1.50947 9.00991
RightShoulder  4.10894 6.73461 34.2423
RightArm  7.80758 -26.1695 33.0709
RightForeArm  115.284 80.0079 105.469
RightHand  -0.738175 6.63659 -7.45234
LeftUpLeg  -16.8606 -2.87068 16.8959
LeftLeg  27.5751 5.82144 3.61866
LeftFoot  5.8047 2.27492 -15.3789
LeftToes  1.24767e-006 1.47042e-008 1.32732e-009
170
root  10.2334 41.071 12.9229 9.84985 -61.3706 -4.16617
RightUpLeg  -7.35262 6.2051 -6.61686
RightLeg  20.7001 0.771018 0.0657146
RightFoot  -1.62119 -1.04147 11.9039
RightToes  -2.08645e-008 3.77894e-005 6.81332e-007
Spine  -4.89837 1.33736 2.96555
Spine1  5.77419 1.28946 0.257087
HEad  -27.6464 35.3525 -14.9903
LeftShoulder1  7.33644 -13.0612 -38.1755
LeftArm  -4.03937 35.091 -35.053
LeftForeArm  162.376 -69.7924 -152.664
LeftHand  -0.380174 -2.09201 6.09871
RightShoulder  4.15647 6.79654 34.4596
RightArm  10.0119 -29.9235 31.3412
RightForeArm  123.996 79.2193 115.946
RightHand  -0.678359 6.35938 -7.02336
LeftUpLeg  -15.0225 2.07569 14.5844
LeftLeg  22.0589 3.83668 2.04654
LeftFoot  10.6238 2.5933 -13.6195
LeftToes  1.24767e-006 1.47042e-008 1.32732e-009
171
root  10.2782 41.8207 13.5727 9.23364 -63.7857 -2.42645
RightUpLeg  -8.49553 7.04571 -8.51209
RightLeg  19.014 0.0271558 -0.443021
RightFoot  4.2513 -1.47959 10.989
RightToes  -2.08645e-008 3.77894e-005 6.81332e-007
Spine  -5.83953 1.90976 1.85555
Spine1  5.13129 1.89661 0.252596
HEad  -26.4615 36.8975 -14.4955
LeftShoulder1  7.23574 -13.0005 -37.7457
LeftArm  -2.50916 38.843 -34.0467
LeftForeArm  164.891 -68.4007 -154.8
LeftHand  -0.186732 -2.53852 2.94517
RightShoulder  4.20725 6.91738 34.478
RightArm  13.2542 -31.308 28.7654
RightForeArm  128.378 78.5632 121.632
RightHand  -0.529875 6.29287 -5.59129
LeftUpLeg  -12.916 5.78214 12.4844
LeftLeg  16.2886 1.31714 0.761223
LeftFoot  10.7691 3.15765 -16.4066
LeftToes  1.24767e-006 1.47042e-008 1.32732e-009
172
root  10.3918 41.9014 14.1668 7.82446 -64.4082 -0.73468
RightUpLeg  -8.98032 8.64724 -9.57808
RightLeg  20.1129 -5.00111 -2.25418
RightFoot  4.67029 -0.724127 5.30301
RightToes  -2.08645e-008 3.77894e-005 6.81332e-007
Spine  -6.0681 1.52364 0.484652
Spine1  5.23422 1.46496 0.747373
HEad  -26.8758 37.9944 -14.4718
LeftShoulder1  7.13904 -12.9424 -37.327
LeftArm  -0.436357 39.6993 -32.0909
LeftForeArm  163.943 -67.8456 -155.347
LeftHand  -0.147359 -2.61146 2.35106
RightShoulder  4.15026 6.89663 34.0144
RightArm  15.3297 -30.5641 27.9858
RightForeArm  127.523 78.5962 121.165
RightHand  -0.484897 6.26103 -5.1588
LeftUpLeg  -11.9371 5.02141 11.112
LeftLeg  13.6343 2.05192 0.977676
LeftFoot  11.786 3.37607 -16.7681
LeftToes  1.24767e-006 1.47042e-008 1.32732e-009
173
root  10.6165 41.3025 14.7821 7.22852 -63.7997 -0.46579
RightUpLeg  -8.71216 8.80535 -9.77569
RightLeg  22.647 -9.66541 -4.61519
RightFoot  1.47872 -0.3032 2.71241
RightToes  -2.08645e-008 3.77894e-005 6.81332e-007
Spine  -5.44181 0.78665 1.05015
Spine1  5.27245 0.831789 -0.182469
HEad  -27.5916 38.233 -14.3975
LeftShoulder1  6.97714 -12.8082 -36.7124
LeftArm  1.41875 37.7833 -30.3264
LeftForeArm  160.524 -68.7066 -153.873
LeftHand  -0.185791 -2.69584 2.88858
RightShoulder  4.09191 6.81644 33.7621
RightArm  15.6363 -29.0339 28.3132
RightForeArm  122.105 79.2045 115.351
RightHand  -0.521184 6.15597 -5.56411
LeftUpLeg  -12.437 1.12443 10.6257
LeftLeg  15.8359 4.11275 1.75491
LeftFoot  10.3606 2.83049 -14.985
LeftToes  1.24767e-006 1.47042e-008 1.32732e-009
174
root  10.9118 40.0514 15.3013 5.35034 -63.2224 1.07056
RightUpLeg  -8.42069 9.01204 -10.8504
RightLeg  26.1158 -12.8523 -6.99187
RightFoot  -5.63166 -0.398159 7.45473
RightToes  -2.08645e-008 3.77894e-005 6.81332e-007
Spine  -3.44001 0.29832 0.180188
Spine1  4.19508 0.306741 -0.269741
HEad  -28.5136 37.806 -14.8167
LeftShoulder1  7.05487 -12.8718 -37.0124
LeftArm  2.15651 33.5189 -28.684
LeftForeArm  156.458 -70.8328 -150.302
LeftHand  -0.270017 -2.89442 4.01157
RightShoulder  4.16483 6.8796 34.2187
RightArm  14.5159 -27.4307 28.1277
RightForeArm  115.039 79.7542 107.885
RightHand  -0.574647 6.22268 -6.06987
LeftUpLeg  -14.281 -1.21606 9.50573
LeftLeg  22.4509 3.35784 1.82997
LeftFoot  0.844489 1.6639 -15.6921
LeftToes  1.24767e-006 1.47042e-008 1.32732e-009
